<?xml version="1.0" encoding="UTF-8"?><svg id="Layer_1" xmlns="http://www.w3.org/2000/svg" width="100" height="100" viewBox="0 0 100 100"><line x1="50.04" y1="29.06" x2="50.13" y2="80.45" style="fill:none; stroke:#c8482c; stroke-linecap:round; stroke-miterlimit:10; stroke-width:1.4px;"/><line x1="50.07" y1="29.05" x2="50.16" y2="80.45" style="fill:none; stroke:#c8482c; stroke-linecap:round; stroke-miterlimit:10; stroke-width:1.4px;"/><line x1="87.23" y1="29.05" x2="87.5" y2="79.18" style="fill:none; stroke:#c8482c; stroke-linecap:round; stroke-miterlimit:10; stroke-width:1.4px;"/><line x1="50.13" y1="27.69" x2="50.12" y2="77.95" style="fill:none; stroke:#c8482c; stroke-linecap:round; stroke-miterlimit:10; stroke-width:1.4px;"/><line x1="12.53" y1="30.27" x2="12.54" y2="79.23" style="fill:none; stroke:#c8482c; stroke-linecap:round; stroke-miterlimit:10; stroke-width:1.4px;"/><line x1="24.38" y1="19.39" x2="24.39" y2="66.72" style="fill:none; stroke:#c8482c; stroke-linecap:round; stroke-miterlimit:10; stroke-width:1.4px;"/><line x1="76.7" y1="19.39" x2="76.7" y2="66.72" style="fill:none; stroke:#c8482c; stroke-linecap:round; stroke-miterlimit:10; stroke-width:1.4px;"/><path d="M24.39,19.39c2.78-.37,7.94-.45,13.98,1.5,5.74,1.86,9.63,4.93,11.68,6.79" style="fill:none; stroke:#c8482c; stroke-linecap:round; stroke-miterlimit:10; stroke-width:1.4px;"/><path d="M76.7,19.39c-2.78-.37-8.55-.52-14.59,1.44-5.74,1.86-9.63,4.93-11.68,6.79" style="fill:none; stroke:#c8482c; stroke-linecap:round; stroke-miterlimit:10; stroke-width:1.4px;"/><path d="M50.13,75.03c-2.03-1.73-6.66-4.49-11.15-6.15-5.89-2.18-11.07-2.15-14.01-1.91" style="fill:none; stroke:#c8482c; stroke-linecap:round; stroke-miterlimit:10; stroke-width:1.4px;"/><path d="M50.56,74.58c2.03-1.73,5.28-4.07,9.77-5.73,5.89-2.18,13.44-2.36,16.38-2.12" style="fill:none; stroke:#c8482c; stroke-linecap:round; stroke-miterlimit:10; stroke-width:1.4px;"/><path d="M50.13,80.84c-3.51-1.53-10.95-4.29-18.52-4.53-7.93-.25-15.21,1.49-18.85,2.87" style="fill:none; stroke:#c8482c; stroke-linecap:round; stroke-miterlimit:10; stroke-width:1.4px;"/><path d="M50.13,80.84c3.51-1.53,10.67-4.38,18.24-4.62,7.93-.25,15.49,1.58,19.13,2.96" style="fill:none; stroke:#c8482c; stroke-linecap:round; stroke-miterlimit:10; stroke-width:1.4px;"/><line x1="23.56" y1="30.18" x2="12.5" y2="30.23" style="fill:none; stroke:#c8482c; stroke-linecap:round; stroke-miterlimit:10; stroke-width:1.4px;"/><line x1="86.83" y1="29.2" x2="76.7" y2="29.35" style="fill:none; stroke:#c8482c; stroke-linecap:round; stroke-miterlimit:10; stroke-width:1.4px;"/></svg>