<svg id="Layer_1" data-name="Layer 1" xmlns="http://www.w3.org/2000/svg" width="75" height="73.04" viewBox="0 0 75 73.04"><g style="opacity:0.92"><path d="M46.88,14.21V12.33a1.88,1.88,0,0,0-3.75,0v1.88H39.38V12.33a1.88,1.88,0,0,0-3.76,0v1.88H31.87V12.33a1.88,1.88,0,0,0-3.75,0v1.88H24.36V12.33a1.88,1.88,0,0,0-3.75,0v1.88H16.85a7.5,7.5,0,0,0-7.5,7.51V63a7.5,7.5,0,0,0,7.5,7.51h41.3A7.5,7.5,0,0,0,65.65,63V21.72a7.5,7.5,0,0,0-7.5-7.51H54.39V12.33a1.88,1.88,0,0,0-3.75,0M61.9,63a3.75,3.75,0,0,1-3.75,3.75H16.85A3.75,3.75,0,0,1,13.1,63V21.72A3.76,3.76,0,0,1,16.85,18h3.76v1.88a1.88,1.88,0,1,0,3.75,0V18h3.76v1.88a1.88,1.88,0,1,0,3.75,0V18h3.75v1.88a1.88,1.88,0,1,0,3.76,0V18h3.75v1.88a1.88,1.88,0,1,0,3.75,0V18h3.76v1.88a1.88,1.88,0,1,0,3.75,0V18h3.76a3.76,3.76,0,0,1,3.75,3.76Z" style="fill:#004c88"/></g><path d="M16.85,27.35m41.3,33.78M46.88,31.58v2.8a.48.48,0,0,1-.47.48h-2.8a.48.48,0,0,1-.48-.48v-2.8a.48.48,0,0,1,.48-.48h2.8A.48.48,0,0,1,46.88,31.58ZM31.46,42.36H28.52a.4.4,0,0,1-.4-.4V39a.4.4,0,0,1,.4-.41h2.94a.41.41,0,0,1,.41.41V42A.4.4,0,0,1,31.46,42.36ZM36,38.61H39a.41.41,0,0,1,.41.41V42a.4.4,0,0,1-.41.4H36a.4.4,0,0,1-.41-.4V39A.41.41,0,0,1,36,38.61Zm-4.16,7.91v2.95a.4.4,0,0,1-.41.4H28.52a.4.4,0,0,1-.4-.4V46.52a.4.4,0,0,1,.4-.4h2.94A.4.4,0,0,1,31.87,46.52Zm4.16-.4H39a.4.4,0,0,1,.41.4v2.95a.4.4,0,0,1-.41.4H36a.4.4,0,0,1-.41-.4V46.52A.4.4,0,0,1,36,46.12Zm7.51,0h2.94a.4.4,0,0,1,.4.4v2.95a.4.4,0,0,1-.4.4H43.54a.4.4,0,0,1-.41-.4V46.52A.4.4,0,0,1,43.54,46.12ZM43.13,42V39a.41.41,0,0,1,.41-.41h2.94a.4.4,0,0,1,.4.41V42a.4.4,0,0,1-.4.4H43.54A.4.4,0,0,1,43.13,42ZM39.38,31.58v2.8a.49.49,0,0,1-.48.48H36.1a.49.49,0,0,1-.48-.48v-2.8a.49.49,0,0,1,.48-.48h2.8A.49.49,0,0,1,39.38,31.58Zm-7.51,0v2.8a.48.48,0,0,1-.48.48h-2.8a.48.48,0,0,1-.47-.48v-2.8a.48.48,0,0,1,.47-.48h2.8A.48.48,0,0,1,31.87,31.58ZM21.09,31.1H24a.4.4,0,0,1,.4.41v2.94a.4.4,0,0,1-.4.41H21a.4.4,0,0,1-.4-.41V31.58A.48.48,0,0,1,21.09,31.1ZM21,38.61H24a.4.4,0,0,1,.4.41V42a.4.4,0,0,1-.4.4H21a.4.4,0,0,1-.4-.4V39A.4.4,0,0,1,21,38.61Zm0,7.51H24a.4.4,0,0,1,.4.4v2.95a.4.4,0,0,1-.4.4H21a.4.4,0,0,1-.4-.4V46.52A.4.4,0,0,1,21,46.12ZM20.61,57V54a.4.4,0,0,1,.4-.4H24a.4.4,0,0,1,.4.4V57a.4.4,0,0,1-.4.41H21A.4.4,0,0,1,20.61,57Zm7.51,0V54a.4.4,0,0,1,.4-.4h2.94a.4.4,0,0,1,.41.4V57a.41.41,0,0,1-.41.41H28.52A.4.4,0,0,1,28.12,57Zm7.5,0V54a.4.4,0,0,1,.41-.4H39a.4.4,0,0,1,.41.4V57a.41.41,0,0,1-.41.41H36A.41.41,0,0,1,35.62,57Zm7.51,0V54a.4.4,0,0,1,.41-.4h2.94a.4.4,0,0,1,.4.4V57a.4.4,0,0,1-.4.41H43.54A.41.41,0,0,1,43.13,57ZM54,57.38H51a.4.4,0,0,1-.4-.41V54a.4.4,0,0,1,.4-.4h3a.4.4,0,0,1,.4.4V57A.4.4,0,0,1,54,57.38Zm0-7.51H51a.4.4,0,0,1-.4-.4V46.52a.4.4,0,0,1,.4-.4h3a.4.4,0,0,1,.4.4v2.95A.4.4,0,0,1,54,49.87Zm0-7.51H51a.4.4,0,0,1-.4-.4V39a.4.4,0,0,1,.4-.41h3a.4.4,0,0,1,.4.41V42A.4.4,0,0,1,54,42.36Zm0-7.5H51a.4.4,0,0,1-.4-.41V31.51a.4.4,0,0,1,.4-.41h3a.4.4,0,0,1,.4.41v2.94A.4.4,0,0,1,54,34.86Z" style="fill:#37bdff"/><rect x="46.88" y="9.52" width="3.75" height="4.69" style="fill:#fff"/></svg>