<?xml version="1.0" encoding="UTF-8"?><svg id="Layer_1" xmlns="http://www.w3.org/2000/svg" width="285" height="170" viewBox="0 0 285 170"><rect width="285" height="170" style="fill:#11284a;"/><g><path d="M101.97,70.97c2.31,3.76-.66,9.06-2.85,11.38-3.69,3.94-8.79,4.88-12.4,3.77-3.01-.92-6.11-4.2-7.21-9.14-2.78-12.79,5.84-25.87,12.1-29.81,3.02-1.92,5.94-2.74,8.21-1.43,1.56,.89,3.3,2.37,4.08,3.79,.89,1.65,1.04,3.38,.51,5.44-.54,2.06-.92,4.58-1.24,6.47-.09,.52-.44,.97-1.26,.63-1.57-.63-2.91-2.32-2.6-5.52,.34-3.4,1.83-7.28,.15-8.46-2.05-1.48-10.29,5.24-13.96,15.33-3.58,9.89-1.21,18.73,2.24,20.57,4.5,2.38,10.11-2.94,12.93-12.87,.17-.73,.84-.86,1.29-.13Z" style="fill:#fff;"/><path d="M163.9,66.04c-1.04,3.66-4.29,7.58-7.75,8.2-5.22,.97-7.85-2.79-6.7-8.11,1.17-5.52,5.25-13.24,4.27-13.42-.52-.09-2.48,1.12-5.59,5.76-3.98,5.94-5.81,12.28-7.25,18.41-.16,.79-.67,1.08-1.32,.64-1.16-.78-2.34-2.94-1.55-7.56,.95-5.41,5.79-14.98,4.54-15.24-.65-.12-3.36,2.11-6.39,7.11-2.76,4.51-4.56,10.65-5.86,16.82-.15,.53-.41,.77-1.11,.41-1.47-.78-2.18-2.78-1.81-6,.21-2.12,1.12-5.5,2.2-9.24-1.47,1.48-3.18,2.39-5.33,2.62-.18,5.45-2.75,12.49-6.95,14.83-2.04,1.16-5.13,1.71-8.2-1.09-3.3-3-3.44-8.5-1.66-13.82,1.5-4.51,4.49-8.81,8.07-9.77,1.85-.49,2.87-.13,4.46,1.26,1.82,1.59,3.7,1.53,4.22,6.09,.06,.3,.13,.67,.07,.99,3.86-.82,6.91-6.08,9.03-11.59,.24-.68,.85-.8,1.33-.26,1.28,1.38,1.56,3.78,1.12,6.32,2.13-3.56,5.84-8.01,8.03-8.38,2.07-.35,3.73,2.66,3.53,5.47,2.31-3.29,5.8-6.93,7.75-7.25,2.19-.37,3.38,3.11,2.74,6.25-.61,2.95-2.73,7.52-3.6,10.77-1.01,3.79,.33,6.48,2.55,5.91,2.4-.6,4.35-5.07,5.8-9.82,.19-.6,.64-.57,1.03-.2,.39,.36,.77,2.3,.33,3.9Zm-48.85-4.7c-1.36,1.72-2.65,4.11-3.53,6.67-1.77,5.07-1.47,10.73,.38,11.81,1.92,1.13,5.17-1.84,7.06-7.87,.66-2.08,1.04-3.98,1.15-5.64-2.35-.73-4.48-2.64-5.07-4.98Zm4.78-.94c-.69-1.88-1.9-1.32-1.78,.54,.07,1.31,.84,2.98,2.25,3.77,.02-1.83-.08-3.26-.47-4.31Z" style="fill:#fff;"/><path d="M162.06,63.7c.64-4.72,3.23-12.65,4.84-16.24,.4-.83,.79-1.1,1.38-.65,1.1,.79,2.1,3.3,1.24,6.61-.75,2.92-2.48,7.53-3.15,10.81-.76,3.8-.17,6.14,1.74,5.63,2.7-.66,5.24-5.31,6.23-9.85,.19-.6,.63-.63,.97-.19,.67,.87,.74,2.18,.32,3.84-1.08,4.11-4.39,7.41-7.78,8.08-4.6,.91-6.52-2.74-5.8-8.04Zm10.38-18.46c-.62,1-2.35,1.16-3.57-.24-1.29-1.44-1.35-3.32-.58-4.54,.77-1.22,2.66-.84,3.77,.64,1.1,1.42,1,3.14,.38,4.14Z" style="fill:#fff;"/><path d="M189.51,41.86c2.06-.09,4.52,2.5,3.63,5.95-.75,2.92-2.83,7.98-3.6,11.4-.88,3.82,.04,6.6,2.2,6.05,2.46-.61,4.64-5.19,6.1-9.88,.19-.6,.62-.69,1.02-.26,.55,.58,.71,2,.21,3.92-.96,3.71-4.17,7.55-7.68,8.25-5.15,1.02-7.1-2.5-6.38-8.11,.83-6.33,4.89-13.8,3.7-14.06-.65-.12-3.83,2.26-6.87,7.27-2.81,4.58-4.32,10.92-5.8,17.12-.13,.59-.45,.91-1.1,.47-1.45-.97-2.21-2.9-1.84-6.12,.46-4.05,3.46-13.39,6.16-19.77,.29-.75,.79-.78,1.27-.25,1.21,1.33,1.55,3.4,1.32,5.72,2.15-3.44,5.61-7.59,7.67-7.68Z" style="fill:#fff;"/><path d="M212.67,64.52c-1.73,8.77-4.13,19.24-8.65,22.15-1.12,.72-2.36,.78-3.76-.58-1.63-1.57-3.14-3.47-2.69-7.27,.68-5.79,5.16-10.51,10.7-14,.34-1.45,.6-3.01,.93-4.52-1.41,2.1-3.28,3.79-5.52,4.23-5.57,1.1-8.15-6.25-4.68-14.48,3.34-7.96,7.7-11.65,10.79-12.26,2.42-.48,4,1.16,4.36,3.29,.49-1.35,.94-2.57,1.34-3.72,.32-.94,.91-1.12,1.44-.66,1.12,.91,2.12,3.42,1.19,6.68-1.1,3.99-3.47,12.07-4.85,18.44,4.58-3.55,7.26-7.53,9.04-11.22,.27-.56,.81-.66,1.05-.08,.23,.52,.19,1.91-.52,3.75-1.63,4.16-5.51,7.44-10.18,10.25Zm-11.62,19.21c1.01,1,4.55-6.25,6.67-16.22-6.96,6.15-7.99,14.97-6.67,16.22Zm10.25-43.03c-1.9,.25-5.56,5-7.85,10.92-2.24,5.85-1.86,11.31,.58,10.89,2.37-.41,4.71-4.83,6.74-10.77,2.5-7.41,2.3-11.27,.52-11.05Z" style="fill:#fff;"/></g><rect width="22" height="170" style="fill:#faa21d;"/><g><path d="M102.96,110.85c-3.7-1.06-6.4-2.37-8.09-3.92-1.69-1.55-2.53-3.47-2.53-5.75,0-2.58,1.03-4.71,3.09-6.4,2.06-1.69,4.74-2.53,8.04-2.53,2.25,0,4.25,.43,6.02,1.3,1.76,.87,3.13,2.07,4.09,3.6,.97,1.53,1.45,3.2,1.45,5.02h-4.34c0-1.99-.63-3.55-1.89-4.68-1.26-1.14-3.04-1.7-5.33-1.7-2.13,0-3.79,.47-4.98,1.41-1.19,.94-1.79,2.24-1.79,3.91,0,1.34,.57,2.47,1.7,3.39,1.13,.92,3.06,1.77,5.78,2.54,2.72,.77,4.85,1.61,6.39,2.53s2.68,2,3.42,3.23c.74,1.23,1.11,2.68,1.11,4.34,0,2.65-1.03,4.78-3.1,6.38-2.07,1.6-4.84,2.4-8.3,2.4-2.25,0-4.35-.43-6.3-1.29s-3.45-2.04-4.51-3.54c-1.06-1.5-1.59-3.2-1.59-5.11h4.34c0,1.98,.73,3.54,2.19,4.69,1.46,1.15,3.42,1.72,5.86,1.72,2.28,0,4.03-.46,5.24-1.39s1.82-2.2,1.82-3.8-.56-2.85-1.69-3.72c-1.12-.88-3.16-1.74-6.12-2.6Z" style="fill:#fff;"/><path d="M145.83,110.13c0,3.21-.54,6.01-1.62,8.4-1.08,2.39-2.61,4.22-4.59,5.48s-4.29,1.89-6.93,1.89-4.87-.63-6.86-1.9c-1.99-1.27-3.54-3.07-4.65-5.42-1.1-2.35-1.67-5.07-1.7-8.15v-2.36c0-3.15,.55-5.93,1.64-8.35,1.09-2.41,2.64-4.26,4.65-5.54,2-1.28,4.29-1.92,6.87-1.92s4.94,.63,6.94,1.9c2,1.27,3.54,3.1,4.62,5.51,1.08,2.41,1.62,5.21,1.62,8.4v2.07Zm-4.3-2.11c0-3.88-.78-6.86-2.34-8.94-1.56-2.08-3.74-3.12-6.55-3.12s-4.88,1.04-6.44,3.12c-1.57,2.08-2.37,4.96-2.42,8.65v2.41c0,3.76,.79,6.72,2.37,8.88,1.58,2.15,3.76,3.23,6.53,3.23s4.95-1.02,6.48-3.05,2.32-4.95,2.36-8.74v-2.43Z" style="fill:#fff;"/><path d="M177.51,110.13c0,3.21-.54,6.01-1.62,8.4-1.08,2.39-2.61,4.22-4.59,5.48s-4.29,1.89-6.93,1.89-4.87-.63-6.86-1.9c-2-1.27-3.54-3.07-4.65-5.42-1.1-2.35-1.67-5.07-1.7-8.15v-2.36c0-3.15,.55-5.93,1.64-8.35,1.09-2.41,2.64-4.26,4.64-5.54s4.29-1.92,6.87-1.92,4.94,.63,6.94,1.9c2,1.27,3.54,3.1,4.62,5.51,1.08,2.41,1.62,5.21,1.62,8.4v2.07Zm-4.3-2.11c0-3.88-.78-6.86-2.34-8.94-1.56-2.08-3.74-3.12-6.55-3.12s-4.88,1.04-6.44,3.12c-1.57,2.08-2.37,4.96-2.42,8.65v2.41c0,3.76,.79,6.72,2.37,8.88,1.58,2.15,3.76,3.23,6.53,3.23s4.95-1.02,6.48-3.05c1.53-2.03,2.32-4.95,2.36-8.74v-2.43Z" style="fill:#fff;"/><path d="M209.16,125.45h-4.34l-16.49-25.24v25.24h-4.34v-32.75h4.34l16.53,25.35v-25.35h4.3v32.75Z" style="fill:#fff;"/></g><rect x="92" y="134" width="119" height="3" style="fill:#00b698;"/></svg>