<?xml version="1.0" encoding="UTF-8"?><svg id="Layer_1" xmlns="http://www.w3.org/2000/svg" width="100" height="100" viewBox="0 0 100 100"><path d="M41.39,84.73c0,.68,.2,1.34,.57,1.91l1.85,2.77c.57,.85,1.85,1.54,2.87,1.54h6.65c1.02,0,2.3-.69,2.87-1.54l1.84-2.77c.32-.48,.58-1.33,.58-1.91v-4.23s-17.24,0-17.24,0v4.23Zm8.63-48.98c-11,.03-18.98,8.95-18.98,18.88,0,4.78,1.77,9.15,4.7,12.49,1.78,2.03,4.56,6.28,5.63,9.86,0,.03,.01,.06,.01,.08h17.27s.01-.06,.01-.08c1.06-3.58,3.85-7.83,5.63-9.86,2.93-3.25,4.7-7.6,4.7-12.49,0-10.38-8.5-18.88-18.98-18.88Zm10.39,28.04c-1.69,1.92-3.78,4.99-5.29,8.18h-10.2c-1.51-3.19-3.6-6.26-5.29-8.18-2.21-2.51-3.42-5.82-3.42-9.17,0-6.66,5.19-13.68,13.7-13.7,7.71,0,13.9,6.19,13.9,13.7,0,3.34-1.21,6.65-3.41,9.16Zm-12.12-19.42c-4.75,0-8.63,3.87-8.63,8.63,0,.95,.77,1.73,1.73,1.73s1.73-.78,1.73-1.73c0-2.85,2.32-5.18,5.18-5.18,.95,0,1.73-.77,1.73-1.72s-.78-1.73-1.73-1.73Z" style="fill:#c8482c;"/><g><rect x="17.65" y="25.33" width="1.52" height="18.22" transform="translate(-20.58 36.77) rotate(-65.29)" style="fill:#c8482c;"/><rect x="36.85" y="8.96" width="1.52" height="18.22" transform="translate(-3.28 9.75) rotate(-14.16)" style="fill:#c8482c;"/><rect x="85.13" y="42.29" width="1.52" height="18.22" transform="translate(137.29 -34.5) rotate(90)" style="fill:#c8482c;"/><rect x="13.35" y="42.29" width="1.52" height="18.22" transform="translate(65.5 37.29) rotate(90)" style="fill:#c8482c;"/><rect x="82.1" y="25.33" width="1.52" height="18.22" transform="translate(86.21 124.11) rotate(-114.71)" style="fill:#c8482c;"/><rect x="60.84" y="8.96" width="1.52" height="18.22" transform="translate(116.92 50.65) rotate(-165.84)" style="fill:#c8482c;"/></g></svg>